<svg xmlns="http://www.w3.org/2000/svg" viewBox="0 0 512 512">
  <rect width="512" height="512" rx="96" fill="#0f5c4d"/>
  <g transform="translate(256 256)">
    <path d="M-110 -150h220a20 20 0 0 1 20 20v280l-37-24-37 24-37-24-37 24-37-24-37 24-37-24v-256a20 20 0 0 1 20-20z" fill="#fff"/>
    <rect x="-80" y="-100" width="120" height="18" rx="9" fill="#0f5c4d" opacity=".35"/>
    <rect x="-80" y="-60" width="160" height="18" rx="9" fill="#0f5c4d" opacity=".35"/>
    <rect x="-80" y="-20" width="90" height="18" rx="9" fill="#0f5c4d" opacity=".35"/>
    <g transform="translate(70 40)"><path d="M0 -70a56 56 0 0 1 56 56c0 42-56 100-56 100s-56-58-56-100a56 56 0 0 1 56-56z" fill="#e8a33d" stroke="#0f5c4d" stroke-width="10"/><circle cy="-14" r="20" fill="#0f5c4d"/></g>
  </g>
</svg>
